<svg viewBox="0 0 512 512" xmlns="http://www.w3.org/2000/svg" shape-rendering="crispEdges">
<rect width="512" height="512" fill="#1a0d2e"/>
<rect x="0.00" y="0.00" width="51.20" height="51.20" fill="hsl(282.8 50.1% 75.9%)"/><rect x="51.20" y="0.00" width="51.20" height="51.20" fill="hsl(282.5 69.4% 63.2%)"/><rect x="102.40" y="0.00" width="51.20" height="51.20" fill="hsl(267.6 69.4% 72.4%)"/><rect x="153.60" y="0.00" width="51.20" height="51.20" fill="hsl(263.4 66.1% 74.7%)"/><rect x="204.80" y="0.00" width="51.20" height="51.20" fill="hsl(268.0 70.0% 78.0%)"/><rect x="256.00" y="0.00" width="51.20" height="51.20" fill="hsl(268.0 70.0% 78.0%)"/><rect x="307.20" y="0.00" width="51.20" height="51.20" fill="hsl(268.0 70.0% 78.0%)"/><rect x="358.40" y="0.00" width="51.20" height="51.20" fill="hsl(268.0 70.0% 78.0%)"/><rect x="409.60" y="0.00" width="51.20" height="51.20" fill="hsl(268.0 70.0% 78.0%)"/><rect x="460.80" y="0.00" width="51.20" height="51.20" fill="hsl(268.0 70.0% 78.0%)"/><rect x="0.00" y="51.20" width="51.20" height="51.20" fill="hsl(241.0 80.4% 48.0%)"/><rect x="51.20" y="51.20" width="51.20" height="51.20" fill="hsl(259.2 77.0% 83.7%)"/><rect x="102.40" y="51.20" width="51.20" height="51.20" fill="hsl(276.8 67.8% 56.3%)"/><rect x="153.60" y="51.20" width="51.20" height="51.20" fill="hsl(271.9 60.3% 69.5%)"/><rect x="204.80" y="51.20" width="51.20" height="51.20" fill="hsl(269.1 68.5% 69.9%)"/><rect x="256.00" y="51.20" width="51.20" height="51.20" fill="hsl(268.0 70.0% 78.0%)"/><rect x="307.20" y="51.20" width="51.20" height="51.20" fill="hsl(268.0 70.0% 78.0%)"/><rect x="358.40" y="51.20" width="51.20" height="51.20" fill="hsl(268.0 70.0% 78.0%)"/><rect x="409.60" y="51.20" width="51.20" height="51.20" fill="hsl(268.0 70.0% 78.0%)"/><rect x="460.80" y="51.20" width="51.20" height="51.20" fill="hsl(268.0 70.0% 78.0%)"/><rect x="0.00" y="102.40" width="51.20" height="51.20" fill="hsl(294.1 90.9% 34.1%)"/><rect x="51.20" y="102.40" width="51.20" height="51.20" fill="hsl(253.6 83.2% 76.3%)"/><rect x="102.40" y="102.40" width="51.20" height="51.20" fill="hsl(287.7 59.9% 70.5%)"/><rect x="153.60" y="102.40" width="51.20" height="51.20" fill="hsl(283.4 61.2% 77.1%)"/><rect x="204.80" y="102.40" width="51.20" height="51.20" fill="hsl(267.6 59.8% 68.7%)"/><rect x="256.00" y="102.40" width="51.20" height="51.20" fill="hsl(267.7 73.6% 69.9%)"/><rect x="307.20" y="102.40" width="51.20" height="51.20" fill="hsl(268.0 70.0% 78.0%)"/><rect x="358.40" y="102.40" width="51.20" height="51.20" fill="hsl(268.0 70.0% 78.0%)"/><rect x="409.60" y="102.40" width="51.20" height="51.20" fill="hsl(268.0 70.0% 78.0%)"/><rect x="460.80" y="102.40" width="51.20" height="51.20" fill="hsl(268.0 70.0% 78.0%)"/><rect x="0.00" y="153.60" width="51.20" height="51.20" fill="hsl(231.8 49.3% 75.2%)"/><rect x="51.20" y="153.60" width="51.20" height="51.20" fill="hsl(240.9 42.1% 86.2%)"/><rect x="102.40" y="153.60" width="51.20" height="51.20" fill="hsl(279.6 71.7% 80.3%)"/><rect x="153.60" y="153.60" width="51.20" height="51.20" fill="hsl(287.2 70.9% 66.3%)"/><rect x="204.80" y="153.60" width="51.20" height="51.20" fill="hsl(281.4 60.7% 74.3%)"/><rect x="256.00" y="153.60" width="51.20" height="51.20" fill="hsl(260.0 70.6% 69.0%)"/><rect x="307.20" y="153.60" width="51.20" height="51.20" fill="hsl(273.1 65.1% 79.5%)"/><rect x="358.40" y="153.60" width="51.20" height="51.20" fill="hsl(268.0 70.0% 78.0%)"/><rect x="409.60" y="153.60" width="51.20" height="51.20" fill="hsl(268.0 70.0% 78.0%)"/><rect x="460.80" y="153.60" width="51.20" height="51.20" fill="hsl(268.0 70.0% 78.0%)"/><rect x="0.00" y="204.80" width="51.20" height="51.20" fill="hsl(244.9 74.6% 10.1%)"/><rect x="51.20" y="204.80" width="51.20" height="51.20" fill="hsl(279.0 61.5% 32.6%)"/><rect x="102.40" y="204.80" width="51.20" height="51.20" fill="hsl(240.3 87.3% 27.7%)"/><rect x="153.60" y="204.80" width="51.20" height="51.20" fill="hsl(264.5 77.8% 32.6%)"/><rect x="204.80" y="204.80" width="51.20" height="51.20" fill="hsl(272.9 52.1% 72.1%)"/><rect x="256.00" y="204.80" width="51.20" height="51.20" fill="hsl(285.9 62.4% 80.9%)"/><rect x="307.20" y="204.80" width="51.20" height="51.20" fill="hsl(263.5 63.2% 75.0%)"/><rect x="358.40" y="204.80" width="51.20" height="51.20" fill="hsl(269.4 67.8% 76.1%)"/><rect x="409.60" y="204.80" width="51.20" height="51.20" fill="hsl(268.0 70.0% 78.0%)"/><rect x="460.80" y="204.80" width="51.20" height="51.20" fill="hsl(268.0 70.0% 78.0%)"/><rect x="0.00" y="256.00" width="51.20" height="51.20" fill="hsl(298.3 97.6% 41.5%)"/><rect x="51.20" y="256.00" width="51.20" height="51.20" fill="hsl(316.6 94.3% 84.3%)"/><rect x="102.40" y="256.00" width="51.20" height="51.20" fill="hsl(248.2 34.0% 78.5%)"/><rect x="153.60" y="256.00" width="51.20" height="51.20" fill="hsl(276.6 89.4% 74.7%)"/><rect x="204.80" y="256.00" width="51.20" height="51.20" fill="hsl(241.7 83.5% 34.0%)"/><rect x="256.00" y="256.00" width="51.20" height="51.20" fill="hsl(279.3 54.1% 73.7%)"/><rect x="307.20" y="256.00" width="51.20" height="51.20" fill="hsl(251.6 67.6% 64.4%)"/><rect x="358.40" y="256.00" width="51.20" height="51.20" fill="hsl(280.6 71.1% 71.0%)"/><rect x="409.60" y="256.00" width="51.20" height="51.20" fill="hsl(264.2 71.4% 77.1%)"/><rect x="460.80" y="256.00" width="51.20" height="51.20" fill="hsl(268.0 70.0% 78.0%)"/><rect x="0.00" y="307.20" width="51.20" height="51.20" fill="hsl(244.7 81.9% 84.0%)"/><rect x="51.20" y="307.20" width="51.20" height="51.20" fill="hsl(262.9 79.7% 77.1%)"/><rect x="102.40" y="307.20" width="51.20" height="51.20" fill="hsl(230.9 42.6% 77.9%)"/><rect x="153.60" y="307.20" width="51.20" height="51.20" fill="hsl(281.8 89.1% 52.2%)"/><rect x="204.80" y="307.20" width="51.20" height="51.20" fill="hsl(276.1 81.0% 78.1%)"/><rect x="256.00" y="307.20" width="51.20" height="51.20" fill="hsl(275.5 74.5% 77.5%)"/><rect x="307.20" y="307.20" width="51.20" height="51.20" fill="hsl(246.4 76.1% 46.4%)"/><rect x="358.40" y="307.20" width="51.20" height="51.20" fill="hsl(274.3 62.9% 72.4%)"/><rect x="409.60" y="307.20" width="51.20" height="51.20" fill="hsl(270.3 62.6% 75.2%)"/><rect x="460.80" y="307.20" width="51.20" height="51.20" fill="hsl(269.8 71.3% 70.0%)"/><rect x="0.00" y="358.40" width="51.20" height="51.20" fill="hsl(315.6 46.9% 64.5%)"/><rect x="51.20" y="358.40" width="51.20" height="51.20" fill="hsl(308.0 65.6% 61.0%)"/><rect x="102.40" y="358.40" width="51.20" height="51.20" fill="hsl(246.6 95.0% 24.9%)"/><rect x="153.60" y="358.40" width="51.20" height="51.20" fill="hsl(226.6 34.0% 85.7%)"/><rect x="204.80" y="358.40" width="51.20" height="51.20" fill="hsl(257.1 40.8% 47.0%)"/><rect x="256.00" y="358.40" width="51.20" height="51.20" fill="hsl(286.8 58.3% 25.5%)"/><rect x="307.20" y="358.40" width="51.20" height="51.20" fill="hsl(255.2 86.8% 59.3%)"/><rect x="358.40" y="358.40" width="51.20" height="51.20" fill="hsl(280.3 66.2% 58.8%)"/><rect x="409.60" y="358.40" width="51.20" height="51.20" fill="hsl(252.0 71.6% 54.7%)"/><rect x="460.80" y="358.40" width="51.20" height="51.20" fill="hsl(259.3 74.4% 64.4%)"/><rect x="0.00" y="409.60" width="51.20" height="51.20" fill="hsl(300.2 48.4% 59.7%)"/><rect x="51.20" y="409.60" width="51.20" height="51.20" fill="hsl(253.2 49.0% 18.8%)"/><rect x="102.40" y="409.60" width="51.20" height="51.20" fill="hsl(278.9 62.9% 25.5%)"/><rect x="153.60" y="409.60" width="51.20" height="51.20" fill="hsl(277.1 54.3% 48.3%)"/><rect x="204.80" y="409.60" width="51.20" height="51.20" fill="hsl(234.8 51.2% 8.2%)"/><rect x="256.00" y="409.60" width="51.20" height="51.20" fill="hsl(245.2 52.7% 70.6%)"/><rect x="307.20" y="409.60" width="51.20" height="51.20" fill="hsl(231.0 91.1% 77.4%)"/><rect x="358.40" y="409.60" width="51.20" height="51.20" fill="hsl(300.8 67.3% 41.7%)"/><rect x="409.60" y="409.60" width="51.20" height="51.20" fill="hsl(251.1 53.1% 64.8%)"/><rect x="460.80" y="409.60" width="51.20" height="51.20" fill="hsl(272.6 55.7% 65.9%)"/><rect x="0.00" y="460.80" width="51.20" height="51.20" fill="hsl(278.8 88.7% 42.7%)"/><rect x="51.20" y="460.80" width="51.20" height="51.20" fill="hsl(271.8 91.0% 39.6%)"/><rect x="102.40" y="460.80" width="51.20" height="51.20" fill="hsl(283.6 88.0% 42.1%)"/><rect x="153.60" y="460.80" width="51.20" height="51.20" fill="hsl(282.8 51.9% 39.6%)"/><rect x="204.80" y="460.80" width="51.20" height="51.20" fill="hsl(285.8 75.3% 72.8%)"/><rect x="256.00" y="460.80" width="51.20" height="51.20" fill="hsl(239.9 48.8% 86.5%)"/><rect x="307.20" y="460.80" width="51.20" height="51.20" fill="hsl(264.6 73.7% 64.0%)"/><rect x="358.40" y="460.80" width="51.20" height="51.20" fill="hsl(279.4 60.5% 33.9%)"/><rect x="409.60" y="460.80" width="51.20" height="51.20" fill="hsl(254.6 81.3% 32.7%)"/><rect x="460.80" y="460.80" width="51.20" height="51.20" fill="hsl(290.4 67.5% 45.5%)"/>
</svg>
